name Walk6.mot
datacolumns 19
datarows 15
range 3.18000000 3.19400000
endheader

                time	   L_ground_force_vx	   L_ground_force_vy	   L_ground_force_vz	   L_ground_force_px	   L_ground_force_py	   L_ground_force_pz	   R_ground_force_vx	   R_ground_force_vy	   R_ground_force_vz	   R_ground_force_px	   R_ground_force_py	   R_ground_force_pz	   L_ground_torque_x	   L_ground_torque_y	   L_ground_torque_z	   R_ground_torque_x	   R_ground_torque_y	   R_ground_torque_z	
          3.18000000	          0.00000000	          0.00000000	          0.00000000	          0.00000000	          0.00000000	          0.00000000	         22.79949768	         81.48359343	          4.47725948	          0.43508647	          0.00000000	          0.08398102	          0.00000000	          0.00000000	          0.00000000	          0.00000000	         -5.12253396	          0.00000000	
          3.18100000	          0.00000000	          0.00000000	          0.00000000	          0.00000000	          0.00000000	          0.00000000	         21.58800065	         76.79403924	          4.53989452	          0.42831784	          0.00000000	          0.08277753	          0.00000000	          0.00000000	          0.00000000	          0.00000000	         -4.87436010	          0.00000000	
          3.18200000	          0.00000000	          0.00000000	          0.00000000	          0.00000000	          0.00000000	         -0.00000000	         20.40266742	         72.25988658	          4.58572906	          0.42122391	          0.00000000	          0.08151109	          0.00000000	          0.00000000	          0.00000000	          0.00000000	         -4.63085966	          0.00000000	
          3.18300000	          0.00000000	          0.00000000	          0.00000000	          0.00000000	          0.00000000	         -0.00000000	         19.24483494	         67.87997687	          4.61545077	          0.41380472	          0.00000000	          0.08018114	          0.00000000	          0.00000000	          0.00000000	          0.00000000	         -4.39228926	          0.00000000	
          3.18400000	          0.00000000	          0.00000000	          0.00000000	          0.00000000	          0.00000000	         -0.00000000	         18.11574749	         63.65297161	          4.62976696	          0.40606170	          0.00000000	          0.07878735	          0.00000000	          0.00000000	          0.00000000	          0.00000000	         -4.15888950	          0.00000000	
          3.18500000	          0.00000000	          0.00000000	          0.00000000	          0.00000000	          0.00000000	         -0.00000000	         17.01654983	         59.57737101	          4.62940374	          0.39799769	          0.00000000	          0.07732970	          0.00000000	          0.00000000	          0.00000000	          0.00000000	         -3.93088408	          0.00000000	
          3.18600000	          0.00000000	          0.00000000	          0.00000000	         -0.00000000	          0.00000000	         -0.00000000	         15.94828178	         55.65153091	          4.61510522	          0.38961713	          0.00000000	          0.07580850	          0.00000000	          0.00000000	          0.00000000	          0.00000000	         -3.70847922	          0.00000000	
          3.18700000	          0.00000000	          0.00000000	          0.00000000	         -0.00000000	          0.00000000	         -0.00000000	         14.91187401	         51.87367832	          4.58763247	          0.38092611	          0.00000000	          0.07422437	          0.00000000	          0.00000000	          0.00000000	          0.00000000	         -3.49186331	          0.00000000	
          3.18800000	          0.00000000	          0.00000000	          0.00000000	         -0.00000000	          0.00000000	         -0.00000000	         13.90814496	         48.24192542	          4.54776202	          0.37193247	          0.00000000	          0.07257832	          0.00000000	          0.00000000	          0.00000000	          0.00000000	         -3.28120663	          0.00000000	
          3.18900000	          0.00000000	          0.00000000	          0.00000000	         -0.00000000	          0.00000000	         -0.00000000	         12.93779869	         44.75428243	          4.49628401	          0.36264594	          0.00000000	          0.07087171	          0.00000000	          0.00000000	          0.00000000	          0.00000000	         -3.07666117	          0.00000000	
          3.19000000	          0.00000000	          0.00000000	          0.00000000	         -0.00000000	          0.00000000	         -0.00000000	         12.00142361	         41.40866943	          4.43399975	          0.35307826	          0.00000000	          0.06910630	          0.00000000	          0.00000000	          0.00000000	          0.00000000	         -2.87836049	          0.00000000	
          3.19100000	          0.00000000	          0.00000000	          0.00000000	         -0.00000000	          0.00000000	         -0.00000000	         11.09949190	         38.20292821	          4.36171908	          0.34324330	          0.00000000	          0.06728426	          0.00000000	          0.00000000	          0.00000000	          0.00000000	         -2.68641958	          0.00000000	
          3.19200000	          0.00000000	          0.00000000	          0.00000000	         -0.00000000	          0.00000000	         -0.00000000	         10.23235942	         35.13483505	          4.28025744	          0.33315724	          0.00000000	          0.06540819	          0.00000000	          0.00000000	          0.00000000	          0.00000000	         -2.50093495	          0.00000000	
          3.19300000	          0.00000000	          0.00000000	          0.00000000	         -0.00000000	          0.00000000	         -0.00000000	          9.40026598	         32.20211479	          4.19043281	          0.32283864	          0.00000000	          0.06348119	          0.00000000	          0.00000000	          0.00000000	          0.00000000	         -2.32198470	          0.00000000	
          3.19400000	          0.00000000	          0.00000000	          0.00000000	         -0.00000000	          0.00000000	         -0.00000000	          8.60333574	         29.40245645	          4.09306266	          0.31230870	          0.00000000	          0.06150688	          0.00000000	          0.00000000	          0.00000000	          0.00000000	         -2.14962869	          0.00000000	
